# xmcd
#
# Track frame offsets:
#	150
#	12486
#	24897
#	37686
#	55755
#	74749
#	91732
#	111339
#	127545
#	141659
#	167221
#	181886
#	198050
#	212895
#
# Disc length: 3100
#
# Revision: 3
# Processed by: cddbd v1.5.1PL0 Copyright (c) Steve Scherf et al.
# Submitted via: CDex 1.51
# Normalized: r1:DSETVAR1,TDELIM( - ),TSWAP
#
DISCID=ba0c1a0e
DTITLE=Various Artist - Artist's Choice - Johnny Cash
DYEAR=2003
DGENRE=Country
TTITLE0=Hank Williams - Lovesick Blues
TTITLE1=Eddy Arnold - I'll Hold You In My Heart
TTITLE2=Johnny Horton - North To Alaska
TTITLE3=Marty Robbins - Big Iron
TTITLE4=Kris Kristofferson - Me And Bobby McGee
TTITLE5=Kris Kristofferson - Loving Her Was Easier
TTITLE6=Roberta Flack - The First Time Ever I Saw Your Face
TTITLE7=Linda Ronstadt - Desperado
TTITLE8=Glen Campbell - Wichita Lineman
TTITLE9=Bruce Springsteen - Highway Patrolman
TTITLE10=Bob Dylan - The Times They Are A-Changin'
TTITLE11=The Chad Mitchell Trio - Four Strong Winds
TTITLE12=Red Foley and The Sunshine Boys - (There'll Be) Peace In The Valley (For Me)
TTITLE13=Mahalia Jackson - His Eye Is On The Sparrow
EXTD=Compilation by Sony Music Entertainment Inc., distributed by Starbucks Coffee Company. YEAR: 2003
EXTT0=
EXTT1=
EXTT2=
EXTT3=
EXTT4=
EXTT5=
EXTT6=
EXTT7=
EXTT8=
EXTT9=
EXTT10=
EXTT11=
EXTT12=
EXTT13=
PLAYORDER=
